<svg width="506" height="84" viewBox="0 0 506 84" fill="none" xmlns="http://www.w3.org/2000/svg">
<path d="M25.088 2.28882e-05C33.1093 2.28882e-05 39.296 2.09069 43.648 6.27202C48 10.368 50.176 16.2987 50.176 24.064C50.176 33.1947 47.4453 40.3627 41.984 45.568C36.608 50.7734 29.1413 53.376 19.584 53.376H9.85601V56.576L10.368 82.176H8.58307e-06L0.640009 57.472L8.58307e-06 0.128021L25.088 2.28882e-05ZM23.424 45.056C28.7147 44.2027 32.7253 42.0694 35.456 38.656C38.272 35.2427 39.68 30.6774 39.68 24.96C39.68 14.3787 34.048 8.87469 22.784 8.44802L10.368 8.83202L9.98401 44.8L23.424 45.056ZM91.204 17.664C100.505 17.664 107.631 20.3947 112.58 25.856C117.615 31.3174 120.132 39.04 120.132 49.024C120.132 59.8614 117.444 68.2667 112.068 74.24C106.777 80.128 99.1827 83.072 89.284 83.072C80.068 83.072 72.9427 80.2987 67.908 74.752C62.8733 69.12 60.356 61.1414 60.356 50.816C60.356 40.2347 63.044 32.0854 68.42 26.368C73.796 20.5654 81.3907 17.664 91.204 17.664ZM90.308 25.728C83.5667 25.728 78.532 27.648 75.204 31.488C71.9613 35.328 70.34 41.3867 70.34 49.664C70.34 58.5387 71.9613 64.9814 75.204 68.992C78.4467 73.0027 83.396 75.008 90.052 75.008C96.8787 75.008 101.956 73.0454 105.284 69.12C108.612 65.1947 110.276 59.0507 110.276 50.688C110.276 42.0694 108.612 35.7547 105.284 31.744C102.041 27.7334 97.0493 25.728 90.308 25.728ZM166.678 56.448C171.883 64.384 177.643 72.192 183.958 79.872L183.83 81.152C180.246 82.2614 177.302 82.9014 174.998 83.072L173.334 82.048C166.849 72.2347 161.942 64.512 158.614 58.88L146.582 59.008V62.208L146.838 82.176H137.366L137.75 62.976L137.366 18.432L159.126 18.304C165.867 18.304 171.03 19.8827 174.614 23.04C178.283 26.1974 180.118 30.7627 180.118 36.736C180.118 41.088 178.923 44.9707 176.534 48.384C174.23 51.7974 170.945 54.4854 166.678 56.448ZM146.71 51.072L158.742 51.456C166.337 49.3227 170.134 44.672 170.134 37.504C170.134 33.7494 169.025 30.9334 166.806 29.056C164.587 27.1787 161.217 26.1547 156.694 25.984L146.838 26.112L146.71 51.072ZM236.436 19.2L235.796 27.264L223.892 26.368H217.492L217.108 62.208L217.492 82.176H207.892L208.276 62.976L208.02 26.368H201.62L189.46 27.264L188.692 26.368L189.46 18.432H235.924L236.436 19.2ZM260.823 26.24L260.695 47.232L271.703 47.36L282.967 46.976L283.607 47.872L282.967 55.168L270.807 55.04L260.567 55.168V62.208L260.823 82.176H251.351L251.607 62.976L251.351 18.432H288.471L288.983 19.2L288.215 26.624L272.471 26.112L260.823 26.24ZM326.454 17.664C335.755 17.664 342.881 20.3947 347.83 25.856C352.865 31.3174 355.382 39.04 355.382 49.024C355.382 59.8614 352.694 68.2667 347.318 74.24C342.027 80.128 334.433 83.072 324.534 83.072C315.318 83.072 308.193 80.2987 303.158 74.752C298.123 69.12 295.606 61.1414 295.606 50.816C295.606 40.2347 298.294 32.0854 303.67 26.368C309.046 20.5654 316.641 17.664 326.454 17.664ZM325.558 25.728C318.817 25.728 313.782 27.648 310.454 31.488C307.211 35.328 305.59 41.3867 305.59 49.664C305.59 58.5387 307.211 64.9814 310.454 68.992C313.697 73.0027 318.646 75.008 325.302 75.008C332.129 75.008 337.206 73.0454 340.534 69.12C343.862 65.1947 345.526 59.0507 345.526 50.688C345.526 42.0694 343.862 35.7547 340.534 31.744C337.291 27.7334 332.299 25.728 325.558 25.728ZM406.92 75.008L406.28 82.176H372.36L372.744 62.976L372.36 18.432H381.96L381.576 62.208L381.832 74.112H406.408L406.92 75.008ZM430.082 62.208L430.338 82.176H420.866L421.25 62.976L420.866 18.432H430.466L430.082 62.208ZM476.954 17.664C486.255 17.664 493.381 20.3947 498.33 25.856C503.365 31.3174 505.882 39.04 505.882 49.024C505.882 59.8614 503.194 68.2667 497.818 74.24C492.527 80.128 484.933 83.072 475.034 83.072C465.818 83.072 458.693 80.2987 453.658 74.752C448.623 69.12 446.106 61.1414 446.106 50.816C446.106 40.2347 448.794 32.0854 454.17 26.368C459.546 20.5654 467.141 17.664 476.954 17.664ZM476.058 25.728C469.317 25.728 464.282 27.648 460.954 31.488C457.711 35.328 456.09 41.3867 456.09 49.664C456.09 58.5387 457.711 64.9814 460.954 68.992C464.197 73.0027 469.146 75.008 475.802 75.008C482.629 75.008 487.706 73.0454 491.034 69.12C494.362 65.1947 496.026 59.0507 496.026 50.688C496.026 42.0694 494.362 35.7547 491.034 31.744C487.791 27.7334 482.799 25.728 476.058 25.728Z" fill="#DEE5CE"/>
</svg>
