<svg width="312" height="250" viewBox="0 0 312 250" fill="none" xmlns="http://www.w3.org/2000/svg">
<path d="M311.328 15.5664V77.832L155.664 140.098L0 77.832V15.5664C0 11.4379 1.64003 7.47856 4.55929 4.5593C7.47856 1.64003 11.4379 0 15.5664 0H295.762C299.89 0 303.849 1.64003 306.769 4.5593C309.688 7.47856 311.328 11.4379 311.328 15.5664ZM0 111.362V233.496C0 237.624 1.64003 241.584 4.55929 244.503C7.47856 247.422 11.4379 249.062 15.5664 249.062H295.762C299.89 249.062 303.849 247.422 306.769 244.503C309.688 241.584 311.328 237.624 311.328 233.496V111.362L155.664 173.628L0 111.362Z" fill="#0A3255"/>
</svg>
