<svg width="119" height="20" viewBox="0 0 119 20" fill="none" xmlns="http://www.w3.org/2000/svg">
<path d="M5.87999 1.19209e-07C7.75999 1.19209e-07 9.20999 0.49 10.23 1.47C11.25 2.43 11.76 3.82 11.76 5.64C11.76 7.78 11.12 9.46 9.83999 10.68C8.57999 11.9 6.82999 12.51 4.58999 12.51H2.30999V13.26L2.42999 19.26H-8.47876e-06L0.149992 13.47L-8.47876e-06 0.0299997L5.87999 1.19209e-07ZM5.48999 10.56C6.72999 10.36 7.66999 9.86 8.30999 9.06C8.96999 8.26 9.29999 7.19 9.29999 5.85C9.29999 3.37 7.97999 2.08 5.33999 1.98L2.42999 2.07L2.33999 10.5L5.48999 10.56ZM21.3759 4.14C23.5559 4.14 25.2259 4.78 26.3859 6.06C27.5659 7.34 28.1559 9.15 28.1559 11.49C28.1559 14.03 27.5259 16 26.2659 17.4C25.0259 18.78 23.2459 19.47 20.9259 19.47C18.7659 19.47 17.0959 18.82 15.9159 17.52C14.7359 16.2 14.1459 14.33 14.1459 11.91C14.1459 9.43 14.7759 7.52 16.0359 6.18C17.2959 4.82 19.0759 4.14 21.3759 4.14ZM21.1659 6.03C19.5859 6.03 18.4059 6.48 17.6259 7.38C16.8659 8.28 16.4859 9.7 16.4859 11.64C16.4859 13.72 16.8659 15.23 17.6259 16.17C18.3859 17.11 19.5459 17.58 21.1059 17.58C22.7059 17.58 23.8959 17.12 24.6759 16.2C25.4559 15.28 25.8459 13.84 25.8459 11.88C25.8459 9.86 25.4559 8.38 24.6759 7.44C23.9159 6.5 22.7459 6.03 21.1659 6.03ZM39.0651 13.23C40.2851 15.09 41.6351 16.92 43.1151 18.72L43.0851 19.02C42.2451 19.28 41.5551 19.43 41.0151 19.47L40.6251 19.23C39.1051 16.93 37.9551 15.12 37.1751 13.8L34.3551 13.83V14.58L34.4151 19.26H32.1951L32.2851 14.76L32.1951 4.32L37.2951 4.29C38.8751 4.29 40.0851 4.66 40.9251 5.4C41.7851 6.14 42.2151 7.21 42.2151 8.61C42.2151 9.63 41.9351 10.54 41.3751 11.34C40.8351 12.14 40.0651 12.77 39.0651 13.23ZM34.3851 11.97L37.2051 12.06C38.9851 11.56 39.8751 10.47 39.8751 8.79C39.8751 7.91 39.6151 7.25 39.0951 6.81C38.5751 6.37 37.7851 6.13 36.7251 6.09L34.4151 6.12L34.3851 11.97ZM55.4147 4.5L55.2647 6.39L52.4747 6.18H50.9747L50.8847 14.58L50.9747 19.26H48.7247L48.8147 14.76L48.7547 6.18H47.2547L44.4047 6.39L44.2247 6.18L44.4047 4.32H55.2947L55.4147 4.5ZM61.1304 6.15L61.1004 11.07L63.6804 11.1L66.3204 11.01L66.4704 11.22L66.3204 12.93L63.4704 12.9L61.0704 12.93V14.58L61.1304 19.26H58.9104L58.9704 14.76L58.9104 4.32H67.6104L67.7304 4.5L67.5504 6.24L63.8604 6.12L61.1304 6.15ZM76.5126 4.14C78.6926 4.14 80.3626 4.78 81.5226 6.06C82.7026 7.34 83.2926 9.15 83.2926 11.49C83.2926 14.03 82.6626 16 81.4026 17.4C80.1626 18.78 78.3826 19.47 76.0626 19.47C73.9026 19.47 72.2326 18.82 71.0526 17.52C69.8726 16.2 69.2826 14.33 69.2826 11.91C69.2826 9.43 69.9126 7.52 71.1726 6.18C72.4326 4.82 74.2126 4.14 76.5126 4.14ZM76.3026 6.03C74.7226 6.03 73.5426 6.48 72.7626 7.38C72.0026 8.28 71.6226 9.7 71.6226 11.64C71.6226 13.72 72.0026 15.23 72.7626 16.17C73.5226 17.11 74.6826 17.58 76.2426 17.58C77.8426 17.58 79.0326 17.12 79.8126 16.2C80.5926 15.28 80.9826 13.84 80.9826 11.88C80.9826 9.86 80.5926 8.38 79.8126 7.44C79.0526 6.5 77.8826 6.03 76.3026 6.03ZM95.3719 17.58L95.2219 19.26H87.2719L87.3619 14.76L87.2719 4.32H89.5219L89.4319 14.58L89.4919 17.37H95.2519L95.3719 17.58ZM100.8 14.58L100.86 19.26H98.6405L98.7305 14.76L98.6405 4.32H100.89L100.8 14.58ZM111.786 4.14C113.966 4.14 115.636 4.78 116.796 6.06C117.976 7.34 118.566 9.15 118.566 11.49C118.566 14.03 117.936 16 116.676 17.4C115.436 18.78 113.656 19.47 111.336 19.47C109.176 19.47 107.506 18.82 106.326 17.52C105.146 16.2 104.556 14.33 104.556 11.91C104.556 9.43 105.186 7.52 106.446 6.18C107.706 4.82 109.486 4.14 111.786 4.14ZM111.576 6.03C109.996 6.03 108.816 6.48 108.036 7.38C107.276 8.28 106.896 9.7 106.896 11.64C106.896 13.72 107.276 15.23 108.036 16.17C108.796 17.11 109.956 17.58 111.516 17.58C113.116 17.58 114.306 17.12 115.086 16.2C115.866 15.28 116.256 13.84 116.256 11.88C116.256 9.86 115.866 8.38 115.086 7.44C114.326 6.5 113.156 6.03 111.576 6.03Z" fill="#6F873A"/>
</svg>
