<svg width="1062" height="949" viewBox="0 0 1062 949" fill="none" xmlns="http://www.w3.org/2000/svg">
<path d="M531 0L650.217 327.871H1036.01L723.897 530.507L843.114 858.379L531 655.743L218.886 858.379L338.103 530.507L25.989 327.871H411.783L531 0Z" fill="#144762"/>
<ellipse cx="534" cy="474.5" rx="228" ry="200.5" fill="#0A3255"/>
<path d="M531 351C625.441 351 702 412.785 702 489C702 491.3 701.928 493.586 701.79 495.858C736.787 514.86 758 539.75 758 567C758 626.647 656.369 675 531 675C405.631 675 304 626.647 304 567C304 539.75 325.213 514.86 360.209 495.858C360.071 493.586 360 491.3 360 489C360 412.785 436.559 351 531 351Z" fill="#DAB09D"/>
<mask id="mask0_66_2" style="mask-type:alpha" maskUnits="userSpaceOnUse" x="250" y="438" width="103" height="200">
<ellipse cx="301.5" cy="538" rx="51.5" ry="100" fill="#0A3255"/>
</mask>
<g mask="url(#mask0_66_2)">
<path d="M245.5 438H304.5V638H245.5V438Z" fill="#0A3255"/>
</g>
<mask id="mask1_66_2" style="mask-type:alpha" maskUnits="userSpaceOnUse" x="709" y="438" width="103" height="200">
<ellipse cx="51.5" cy="100" rx="51.5" ry="100" transform="matrix(-1 0 0 1 812 438)" fill="#0A3255"/>
</mask>
<g mask="url(#mask1_66_2)">
<path d="M816.5 438H757.5V638H816.5V438Z" fill="#0A3255"/>
</g>
<rect x="302" y="438" width="58" height="200" fill="#0A3255"/>
<rect width="58" height="200" transform="matrix(-1 0 0 1 760 438)" fill="#0A3255"/>
<ellipse cx="653" cy="546.5" rx="38" ry="43.5" fill="#0A3255"/>
<ellipse cx="409" cy="546.5" rx="38" ry="43.5" fill="#0A3255"/>
<path fill-rule="evenodd" clip-rule="evenodd" d="M536.855 551.559C548.996 545.352 561.489 545.502 564.757 551.895C568.025 558.287 560.831 568.502 548.69 574.709C542.36 577.945 535.935 579.452 530.772 579.248C525.608 579.451 519.184 577.945 512.855 574.709C500.713 568.502 493.52 558.287 496.788 551.895C500.056 545.502 512.548 545.352 524.69 551.559C526.891 552.684 528.929 553.942 530.772 555.284C532.615 553.942 534.653 552.684 536.855 551.559Z" fill="#0A3255"/>
<mask id="mask2_66_2" style="mask-type:alpha" maskUnits="userSpaceOnUse" x="346" y="351" width="375" height="335">
<path d="M701.933 485.141C714.142 503.658 721 524.483 721 546.5C721 623.544 637.053 686 533.5 686C429.947 686 346 623.544 346 546.5C346 527.683 351.008 509.737 360.086 493.358C362.938 567.557 438.366 627 531 627C625.441 627 702 565.215 702 489C702 487.709 701.976 486.423 701.933 485.141ZM531 351C623.841 351 699.4 410.71 701.933 485.141C672.748 440.879 612.975 409.805 543.116 407.18L531 375L518.791 407.424C446.91 411.574 386.399 445.881 360.086 493.358C360.03 491.911 360 490.458 360 489C360 412.785 436.559 351 531 351Z" fill="#876651"/>
</mask>
<g mask="url(#mask2_66_2)">
<path d="M731 484H384V492H323V342H731V484Z" fill="#876651"/>
</g>
</svg>
