<svg width="284" height="268" viewBox="0 0 284 268" fill="none" xmlns="http://www.w3.org/2000/svg">
<path d="M197.579 171.616L190.412 178.741C190.412 178.741 173.376 195.68 126.878 149.444C80.3793 103.21 97.4143 86.2715 97.4143 86.2715L101.927 81.7838C113.046 70.7289 114.094 52.9803 104.393 40.0231L84.5514 13.5181C72.5455 -2.51901 49.3462 -4.63749 35.5852 9.04524L10.8866 33.6036C4.06338 40.3882 -0.509075 49.183 0.0454475 58.9394C1.46401 83.8993 12.757 137.603 75.7725 200.261C142.598 266.706 205.299 269.346 230.94 266.956C239.05 266.201 246.103 262.07 251.787 256.418L274.141 234.193C289.23 219.189 284.975 193.468 265.669 182.973L235.606 166.63C222.929 159.74 207.486 161.763 197.579 171.616Z" fill="#0A3255"/>
</svg>
