<svg width="119" height="20" viewBox="0 0 119 20" fill="none" xmlns="http://www.w3.org/2000/svg">
<path d="M5.88001 9.17912e-06C7.76001 9.17912e-06 9.21001 0.490009 10.23 1.47001C11.25 2.43001 11.76 3.82001 11.76 5.64001C11.76 7.78001 11.12 9.46001 9.84001 10.68C8.58001 11.9 6.83001 12.51 4.59001 12.51H2.31001V13.26L2.43001 19.26H6.78003e-06L0.150007 13.47L6.78003e-06 0.0300088L5.88001 9.17912e-06ZM5.49001 10.56C6.73001 10.36 7.67001 9.86001 8.31001 9.06001C8.97001 8.26001 9.30001 7.19001 9.30001 5.85001C9.30001 3.37001 7.98001 2.08001 5.34001 1.98001L2.43001 2.07001L2.34001 10.5L5.49001 10.56ZM21.3759 4.14001C23.5559 4.14001 25.2259 4.78001 26.3859 6.06001C27.5659 7.34001 28.1559 9.15001 28.1559 11.49C28.1559 14.03 27.5259 16 26.2659 17.4C25.0259 18.78 23.2459 19.47 20.9259 19.47C18.7659 19.47 17.0959 18.82 15.9159 17.52C14.7359 16.2 14.1459 14.33 14.1459 11.91C14.1459 9.43001 14.7759 7.52001 16.0359 6.18001C17.2959 4.82001 19.0759 4.14001 21.3759 4.14001ZM21.1659 6.03001C19.5859 6.03001 18.4059 6.48001 17.6259 7.38001C16.8659 8.28001 16.4859 9.70001 16.4859 11.64C16.4859 13.72 16.8659 15.23 17.6259 16.17C18.3859 17.11 19.5459 17.58 21.1059 17.58C22.7059 17.58 23.8959 17.12 24.6759 16.2C25.4559 15.28 25.8459 13.84 25.8459 11.88C25.8459 9.86001 25.4559 8.38001 24.6759 7.44001C23.9159 6.50001 22.7459 6.03001 21.1659 6.03001ZM39.0652 13.23C40.2852 15.09 41.6352 16.92 43.1152 18.72L43.0852 19.02C42.2452 19.28 41.5552 19.43 41.0152 19.47L40.6252 19.23C39.1052 16.93 37.9552 15.12 37.1752 13.8L34.3552 13.83V14.58L34.4152 19.26H32.1952L32.2852 14.76L32.1952 4.32001L37.2952 4.29001C38.8752 4.29001 40.0852 4.66001 40.9252 5.40001C41.7852 6.14001 42.2152 7.21001 42.2152 8.61001C42.2152 9.63001 41.9352 10.54 41.3752 11.34C40.8352 12.14 40.0652 12.77 39.0652 13.23ZM34.3852 11.97L37.2052 12.06C38.9852 11.56 39.8752 10.47 39.8752 8.79001C39.8752 7.91001 39.6152 7.25001 39.0952 6.81001C38.5752 6.37001 37.7852 6.13001 36.7252 6.09001L34.4152 6.12001L34.3852 11.97ZM55.4147 4.50001L55.2647 6.39001L52.4747 6.18001H50.9747L50.8847 14.58L50.9747 19.26H48.7247L48.8147 14.76L48.7547 6.18001H47.2547L44.4047 6.39001L44.2247 6.18001L44.4047 4.32001H55.2947L55.4147 4.50001ZM61.1304 6.15001L61.1004 11.07L63.6804 11.1L66.3204 11.01L66.4704 11.22L66.3204 12.93L63.4704 12.9L61.0704 12.93V14.58L61.1304 19.26H58.9104L58.9704 14.76L58.9104 4.32001H67.6104L67.7304 4.50001L67.5504 6.24001L63.8604 6.12001L61.1304 6.15001ZM76.5127 4.14001C78.6927 4.14001 80.3627 4.78001 81.5227 6.06001C82.7027 7.34001 83.2927 9.15001 83.2927 11.49C83.2927 14.03 82.6627 16 81.4027 17.4C80.1627 18.78 78.3827 19.47 76.0627 19.47C73.9027 19.47 72.2327 18.82 71.0527 17.52C69.8727 16.2 69.2827 14.33 69.2827 11.91C69.2827 9.43001 69.9127 7.52001 71.1727 6.18001C72.4327 4.82001 74.2127 4.14001 76.5127 4.14001ZM76.3027 6.03001C74.7227 6.03001 73.5427 6.48001 72.7627 7.38001C72.0027 8.28001 71.6227 9.70001 71.6227 11.64C71.6227 13.72 72.0027 15.23 72.7627 16.17C73.5227 17.11 74.6827 17.58 76.2427 17.58C77.8427 17.58 79.0327 17.12 79.8127 16.2C80.5927 15.28 80.9827 13.84 80.9827 11.88C80.9827 9.86001 80.5927 8.38001 79.8127 7.44001C79.0527 6.50001 77.8827 6.03001 76.3027 6.03001ZM95.3719 17.58L95.2219 19.26H87.2719L87.3619 14.76L87.2719 4.32001H89.5219L89.4319 14.58L89.4919 17.37H95.2519L95.3719 17.58ZM100.8 14.58L100.86 19.26H98.6405L98.7305 14.76L98.6405 4.32001H100.89L100.8 14.58ZM111.786 4.14001C113.966 4.14001 115.636 4.78001 116.796 6.06001C117.976 7.34001 118.566 9.15001 118.566 11.49C118.566 14.03 117.936 16 116.676 17.4C115.436 18.78 113.656 19.47 111.336 19.47C109.176 19.47 107.506 18.82 106.326 17.52C105.146 16.2 104.556 14.33 104.556 11.91C104.556 9.43001 105.186 7.52001 106.446 6.18001C107.706 4.82001 109.486 4.14001 111.786 4.14001ZM111.576 6.03001C109.996 6.03001 108.816 6.48001 108.036 7.38001C107.276 8.28001 106.896 9.70001 106.896 11.64C106.896 13.72 107.276 15.23 108.036 16.17C108.796 17.11 109.956 17.58 111.516 17.58C113.116 17.58 114.306 17.12 115.086 16.2C115.866 15.28 116.256 13.84 116.256 11.88C116.256 9.86001 115.866 8.38001 115.086 7.44001C114.326 6.50001 113.156 6.03001 111.576 6.03001Z" fill="#DEE5CE"/>
</svg>
