<svg width="159" height="26" viewBox="0 0 159 26" fill="none" xmlns="http://www.w3.org/2000/svg">
<path d="M7.84003 -6.91414e-05C10.3467 -6.91414e-05 12.28 0.653264 13.64 1.95993C15 3.23993 15.68 5.09326 15.68 7.51993C15.68 10.3733 14.8267 12.6133 13.12 14.2399C11.44 15.8666 9.1067 16.6799 6.12003 16.6799H3.08003V17.6799L3.24003 25.6799H2.93851e-05L0.200029 17.9599L2.93851e-05 0.0399303L7.84003 -6.91414e-05ZM7.32003 14.0799C8.97336 13.8133 10.2267 13.1466 11.08 12.0799C11.96 11.0133 12.4 9.5866 12.4 7.79993C12.4 4.49326 10.64 2.77326 7.12003 2.63993L3.24003 2.75993L3.12003 13.9999L7.32003 14.0799ZM28.5013 5.51993C31.4079 5.51993 33.6346 6.37326 35.1813 8.07993C36.7546 9.7866 37.5413 12.1999 37.5413 15.3199C37.5413 18.7066 36.7013 21.3333 35.0213 23.1999C33.3679 25.0399 30.9946 25.9599 27.9013 25.9599C25.0213 25.9599 22.7946 25.0933 21.2213 23.3599C19.6479 21.5999 18.8613 19.1066 18.8613 15.8799C18.8613 12.5733 19.7013 10.0266 21.3813 8.23993C23.0613 6.4266 25.4346 5.51993 28.5013 5.51993ZM28.2213 8.03993C26.1146 8.03993 24.5413 8.63993 23.5013 9.83993C22.4879 11.0399 21.9813 12.9333 21.9813 15.5199C21.9813 18.2933 22.4879 20.3066 23.5013 21.5599C24.5146 22.8133 26.0613 23.4399 28.1413 23.4399C30.2746 23.4399 31.8613 22.8266 32.9013 21.5999C33.9413 20.3733 34.4613 18.4533 34.4613 15.8399C34.4613 13.1466 33.9413 11.1733 32.9013 9.91993C31.8879 8.6666 30.3279 8.03993 28.2213 8.03993ZM52.0869 17.6399C53.7136 20.1199 55.5136 22.5599 57.4869 24.9599L57.4469 25.3599C56.3269 25.7066 55.4069 25.9066 54.6869 25.9599L54.1669 25.6399C52.1402 22.5733 50.6069 20.1599 49.5669 18.3999L45.8069 18.4399V19.4399L45.8869 25.6799H42.9269L43.0469 19.6799L42.9269 5.75993L49.7269 5.71993C51.8336 5.71993 53.4469 6.21326 54.5669 7.19993C55.7136 8.1866 56.2869 9.61326 56.2869 11.4799C56.2869 12.8399 55.9136 14.0533 55.1669 15.1199C54.4469 16.1866 53.4202 17.0266 52.0869 17.6399ZM45.8469 15.9599L49.6069 16.0799C51.9802 15.4133 53.1669 13.9599 53.1669 11.7199C53.1669 10.5466 52.8202 9.6666 52.1269 9.07993C51.4336 8.49326 50.3802 8.17326 48.9669 8.11993L45.8869 8.15993L45.8469 15.9599ZM73.8863 5.99993L73.6863 8.51993L69.9663 8.23993H67.9663L67.8463 19.4399L67.9663 25.6799H64.9663L65.0863 19.6799L65.0063 8.23993H63.0063L59.2063 8.51993L58.9663 8.23993L59.2063 5.75993H73.7263L73.8863 5.99993ZM81.5072 8.19993L81.4672 14.7599L84.9072 14.7999L88.4272 14.6799L88.6272 14.9599L88.4272 17.2399L84.6272 17.1999L81.4272 17.2399V19.4399L81.5072 25.6799H78.5472L78.6272 19.6799L78.5472 5.75993H90.1472L90.3072 5.99993L90.0672 8.31993L85.1472 8.15993L81.5072 8.19993ZM102.017 5.51993C104.924 5.51993 107.15 6.37326 108.697 8.07993C110.27 9.7866 111.057 12.1999 111.057 15.3199C111.057 18.7066 110.217 21.3333 108.537 23.1999C106.884 25.0399 104.51 25.9599 101.417 25.9599C98.5369 25.9599 96.3102 25.0933 94.7369 23.3599C93.1636 21.5999 92.3769 19.1066 92.3769 15.8799C92.3769 12.5733 93.2169 10.0266 94.8969 8.23993C96.5769 6.4266 98.9502 5.51993 102.017 5.51993ZM101.737 8.03993C99.6302 8.03993 98.0569 8.63993 97.0169 9.83993C96.0036 11.0399 95.4969 12.9333 95.4969 15.5199C95.4969 18.2933 96.0036 20.3066 97.0169 21.5599C98.0302 22.8133 99.5769 23.4399 101.657 23.4399C103.79 23.4399 105.377 22.8266 106.417 21.5999C107.457 20.3733 107.977 18.4533 107.977 15.8399C107.977 13.1466 107.457 11.1733 106.417 9.91993C105.404 8.6666 103.844 8.03993 101.737 8.03993ZM127.163 23.4399L126.963 25.6799H116.363L116.483 19.6799L116.363 5.75993H119.363L119.243 19.4399L119.323 23.1599H127.003L127.163 23.4399ZM134.401 19.4399L134.481 25.6799H131.521L131.641 19.6799L131.521 5.75993H134.521L134.401 19.4399ZM149.048 5.51993C151.955 5.51993 154.181 6.37326 155.728 8.07993C157.301 9.7866 158.088 12.1999 158.088 15.3199C158.088 18.7066 157.248 21.3333 155.568 23.1999C153.915 25.0399 151.541 25.9599 148.448 25.9599C145.568 25.9599 143.341 25.0933 141.768 23.3599C140.195 21.5999 139.408 19.1066 139.408 15.8799C139.408 12.5733 140.248 10.0266 141.928 8.23993C143.608 6.4266 145.981 5.51993 149.048 5.51993ZM148.768 8.03993C146.661 8.03993 145.088 8.63993 144.048 9.83993C143.035 11.0399 142.528 12.9333 142.528 15.5199C142.528 18.2933 143.035 20.3066 144.048 21.5599C145.061 22.8133 146.608 23.4399 148.688 23.4399C150.821 23.4399 152.408 22.8266 153.448 21.5999C154.488 20.3733 155.008 18.4533 155.008 15.8399C155.008 13.1466 154.488 11.1733 153.448 9.91993C152.435 8.6666 150.875 8.03993 148.768 8.03993Z" fill="#DEE5CE"/>
</svg>
